<svg xmlns="http://www.w3.org/2000/svg" viewBox="0 0 64 64" role="img" aria-label="GUCC icon">
  <defs>
    <linearGradient id="panel" x1="8" y1="6" x2="58" y2="60" gradientUnits="userSpaceOnUse">
      <stop offset="0" stop-color="#111827"/>
      <stop offset="0.48" stop-color="#090d14"/>
      <stop offset="1" stop-color="#0e1f1c"/>
    </linearGradient>
    <linearGradient id="edge" x1="10" y1="10" x2="54" y2="54" gradientUnits="userSpaceOnUse">
      <stop offset="0" stop-color="#76f7ff"/>
      <stop offset="0.52" stop-color="#77ffb8"/>
      <stop offset="1" stop-color="#ff5da8"/>
    </linearGradient>
    <filter id="glow" x="-40%" y="-40%" width="180%" height="180%">
      <feGaussianBlur stdDeviation="1.9" result="blur"/>
      <feColorMatrix in="blur" type="matrix" values="0 0 0 0 0.3 0 0 0 0 1 0 0 0 0 0.78 0 0 0 0.78 0"/>
      <feMerge>
        <feMergeNode/>
        <feMergeNode in="SourceGraphic"/>
      </feMerge>
    </filter>
  </defs>
  <rect x="5" y="5" width="54" height="54" rx="12" fill="url(#panel)"/>
  <path d="M17 12h30l5 5v30l-5 5H17l-5-5V17l5-5Z" fill="none" stroke="#253448" stroke-width="2"/>
  <path d="M19 15h25l5 5v24l-5 5H20l-5-5V20l4-5Z" fill="none" stroke="url(#edge)" stroke-width="2.5" filter="url(#glow)"/>
  <path d="M23 23h14c6 0 10 3.7 10 9.1 0 5.9-4.4 9.9-10.9 9.9H29v-7h8.3c1.9 0 3.1-1 3.1-2.6 0-1.7-1.2-2.6-3.1-2.6H23v-6.8Z" fill="#eff7ff"/>
  <path d="M25 31.5 37 25v13l-12-6.5Z" fill="#77ffb8"/>
  <path d="M15 47h18v4H15v-4Zm27-34h7v4h-7v-4Z" fill="#ff5da8"/>
</svg>
