<svg xmlns="http://www.w3.org/2000/svg" viewBox="0 0 64 64" role="img" aria-label="GUCC icon">
  <defs>
    <linearGradient id="bg" x1="7" y1="6" x2="57" y2="58" gradientUnits="userSpaceOnUse">
      <stop offset="0" stop-color="#182032"/>
      <stop offset="1" stop-color="#050812"/>
    </linearGradient>
    <linearGradient id="bolt" x1="18" y1="51" x2="46" y2="10" gradientUnits="userSpaceOnUse">
      <stop offset="0" stop-color="#78ffba"/>
      <stop offset=".52" stop-color="#74f3ff"/>
      <stop offset="1" stop-color="#9da9ff"/>
    </linearGradient>
    <filter id="softGlow" x="-35%" y="-35%" width="170%" height="170%">
      <feGaussianBlur stdDeviation="1.4" result="blur"/>
      <feColorMatrix in="blur" type="matrix" values="0 0 0 0 .34 0 0 0 0 .96 0 0 0 0 1 0 0 0 .55 0"/>
      <feMerge>
        <feMergeNode/>
        <feMergeNode in="SourceGraphic"/>
      </feMerge>
    </filter>
  </defs>

  <rect x="4" y="4" width="56" height="56" rx="16" fill="url(#bg)"/>
  <rect x="6.5" y="6.5" width="51" height="51" rx="13.5" fill="none" stroke="#26344d" stroke-width="2"/>
  <path d="M19 18h25c4.4 0 8 3.6 8 8v3h-8v-2.4c0-1.6-1.2-2.6-2.9-2.6H23.7c-2.1 0-3.7 1.6-3.7 3.8v8.4c0 2.2 1.6 3.8 3.7 3.8h14.1c1.8 0 3.2-1.1 3.2-2.8V36H31v-7h21v9c0 6.2-4.8 10-11.4 10H19c-5.7 0-10-4.4-10-10V28c0-5.8 4.3-10 10-10Z" fill="#eef6ff" opacity=".96"/>
  <path d="M37 10 18 35h11l-4 19 22-28H35l2-16Z" fill="url(#bolt)" filter="url(#softGlow)"/>
  <path d="M44 13h7v7" fill="none" stroke="#ff5da8" stroke-width="4" stroke-linecap="round"/>
  <circle cx="50" cy="48" r="4" fill="#ff5da8"/>
</svg>
