<svg xmlns="http://www.w3.org/2000/svg" viewBox="0 0 64 64" role="img" aria-label="GUCC icon">
  <defs>
    <linearGradient id="bg" x1="8" y1="6" x2="56" y2="58" gradientUnits="userSpaceOnUse">
      <stop offset="0" stop-color="#172033"/>
      <stop offset="1" stop-color="#050812"/>
    </linearGradient>
    <linearGradient id="bolt" x1="20" y1="50" x2="45" y2="12" gradientUnits="userSpaceOnUse">
      <stop offset="0" stop-color="#78ffba"/>
      <stop offset=".58" stop-color="#74f3ff"/>
      <stop offset="1" stop-color="#9da9ff"/>
    </linearGradient>
    <filter id="glow" x="-30%" y="-30%" width="160%" height="160%">
      <feGaussianBlur stdDeviation="1.2" result="blur"/>
      <feColorMatrix in="blur" type="matrix" values="0 0 0 0 .34 0 0 0 0 .96 0 0 0 0 1 0 0 0 .42 0"/>
      <feMerge><feMergeNode/><feMergeNode in="SourceGraphic"/></feMerge>
    </filter>
  </defs>
  <rect x="4" y="4" width="56" height="56" rx="17" fill="url(#bg)"/>
  <rect x="7" y="7" width="50" height="50" rx="14" fill="none" stroke="#293a55" stroke-width="2"/>
  <path d="M33 15c-10 0-17 7-17 17s7 17 17 17c7.9 0 14-4.6 16-11.5H35.5v-7H52v3.2C52 46.2 44.2 56 32.8 56 19.2 56 9 45.8 9 32S19.2 8 32.8 8c7.1 0 13.1 2.9 17.2 7.7l-5.7 5.2C41.5 17.3 37.8 15 33 15Z" fill="#eef6ff" opacity=".96"/>
  <path d="M38 10 19 35h10l-4 19 22-28H35l3-16Z" fill="url(#bolt)" filter="url(#glow)"/>
</svg>
