<svg xmlns="http://www.w3.org/2000/svg" viewBox="0 0 64 64" role="img" aria-label="GUCC creator frost icon">
  <defs>
    <linearGradient id="bg" x1="6" y1="5" x2="58" y2="59" gradientUnits="userSpaceOnUse">
      <stop offset="0" stop-color="#151b2a"/>
      <stop offset=".48" stop-color="#070a10"/>
      <stop offset="1" stop-color="#0c1524"/>
    </linearGradient>
    <linearGradient id="edge" x1="5" y1="5" x2="59" y2="59" gradientUnits="userSpaceOnUse">
      <stop offset="0" stop-color="#fff7dd"/>
      <stop offset=".28" stop-color="#76f7ff"/>
      <stop offset=".66" stop-color="#8ea7ff"/>
      <stop offset="1" stop-color="#ff5da8"/>
    </linearGradient>
    <linearGradient id="blade" x1="19" y1="51" x2="47" y2="10" gradientUnits="userSpaceOnUse">
      <stop offset="0" stop-color="#7ff7ff"/>
      <stop offset=".42" stop-color="#eef9ff"/>
      <stop offset=".73" stop-color="#8ea7ff"/>
      <stop offset="1" stop-color="#4d7dff"/>
    </linearGradient>
    <linearGradient id="flare" x1="18" y1="16" x2="54" y2="49" gradientUnits="userSpaceOnUse">
      <stop offset="0" stop-color="#fff2c8"/>
      <stop offset=".46" stop-color="#ff5da8"/>
      <stop offset="1" stop-color="#ff8a3d"/>
    </linearGradient>
    <filter id="glow" x="-35%" y="-35%" width="170%" height="170%">
      <feGaussianBlur stdDeviation="1.5" result="blur"/>
      <feColorMatrix in="blur" type="matrix" values="0 0 0 0 .35 0 0 0 0 .95 0 0 0 0 1 0 0 0 .8 0"/>
      <feMerge>
        <feMergeNode/>
        <feMergeNode in="SourceGraphic"/>
      </feMerge>
    </filter>
  </defs>

  <rect x="2" y="2" width="60" height="60" rx="13" fill="url(#bg)"/>
  <path d="M15 6h34l9 9v34l-9 9H15l-9-9V15l9-9Z" fill="none" stroke="#26364c" stroke-width="2"/>
  <path d="M16 8h32l8 8v32l-8 8H16l-8-8V16l8-8Z" fill="none" stroke="url(#edge)" stroke-width="3" filter="url(#glow)"/>

  <path d="M11 43 44 10l9 3-31 39-11 3Z" fill="url(#blade)" filter="url(#glow)"/>
  <path d="M24 42 39 24l3 10 9 5-27 13Z" fill="#08101d" opacity=".9"/>
  <path d="M28 40 39 29l2 6 6 3-19 8Z" fill="#76f7ff"/>
  <path d="M21 20h13l-5 6H15l-4 5 2-8 8-3Z" fill="#eef9ff" opacity=".92"/>

  <path d="M41 14c8 4 12 10 12 18 0 7-3 13-9 17 3-6 2-11-1-16l-6 3 5-9-7-5 8-2Z" fill="url(#flare)" opacity=".9"/>
  <path d="M13 49h21" stroke="#77ffb8" stroke-width="4" stroke-linecap="square"/>
  <path d="M37 49h12" stroke="#ff5da8" stroke-width="4" stroke-linecap="square"/>
  <path d="M13 15h7M44 15h7M13 29h6M49 32h5" stroke="#76f7ff" stroke-width="2" stroke-linecap="square" opacity=".75"/>

  <path d="M17 36 9 33l8-3M47 24l8-3-4 8M35 9l-3 8-4-6" fill="none" stroke="#eef9ff" stroke-width="2" stroke-linejoin="miter" opacity=".9"/>
  <path d="M18 53 30 35h-7l10-22-2 16h9L18 53Z" fill="#77ffb8" opacity=".96" filter="url(#glow)"/>
  <path d="M31 35 43 29v12l-12-6Z" fill="#fffbef" stroke="#07101b" stroke-width="1.5"/>
  <circle cx="48" cy="16" r="3" fill="#fff2c8"/>
  <circle cx="53" cy="47" r="2.4" fill="#76f7ff"/>
  <circle cx="12" cy="18" r="2.2" fill="#ff5da8"/>
</svg>
